<svg width="308" height="66" viewBox="0 0 308 66" fill="none" xmlns="http://www.w3.org/2000/svg">
<path d="M0 39.9081H9.51616C9.61223 42.5158 11.1586 44.7393 14.2971 44.7393C17.001 44.7393 18.6938 43.0969 18.6938 40.8276C18.6938 38.1695 16.4703 37.1081 12.22 35.6075C5.31166 33.1918 1.3954 30.1494 1.3954 23.6254C1.3954 17.1013 6.94954 12.27 14.1507 12.27C21.8826 12.27 26.9563 17.2935 27.0021 24.8789L18.1127 24.8286C18.0166 22.509 16.7585 20.6744 14.1507 20.6744C11.9775 20.6744 10.5776 22.0287 10.5776 23.7672C10.5776 26.2332 13.0435 27.0521 15.9899 28.0678C22.7564 30.337 28.5027 32.3683 28.5027 40.9695C28.5027 48.8432 22.3675 53.4823 14.3474 53.4823C5.79662 53.4823 0.0457508 47.9739 0 39.9035V39.9081Z" fill="#1A1A1A"/>
<path d="M51.1173 53.583C39.0849 53.583 30.438 43.9662 30.438 32.9037C30.438 21.8411 39.0849 12.2747 51.1173 12.2747C63.1498 12.2747 71.7463 21.8915 71.7463 32.9037C71.7463 43.9159 63.0995 53.583 51.1173 53.583ZM51.1173 22.0333C44.79 22.0333 40.1966 26.9607 40.1966 32.9037C40.1966 38.8467 44.7854 43.8244 51.1173 43.8244C57.4492 43.8244 61.9877 38.8467 61.9877 32.9037C61.9877 26.9607 57.3989 22.0333 51.1173 22.0333Z" fill="#1A1A1A"/>
<path d="M95.3263 53.583C83.2939 53.583 74.647 43.9662 74.647 32.9037C74.647 21.8411 83.2939 12.2747 95.3263 12.2747C107.359 12.2747 115.955 21.8915 115.955 32.9037C115.955 43.9159 107.308 53.583 95.3263 53.583ZM95.3263 22.0333C88.999 22.0333 84.4056 26.9607 84.4056 32.9037C84.4056 38.8467 88.9944 43.8244 95.3263 43.8244C101.658 43.8244 106.197 38.8467 106.197 32.9037C106.197 26.9607 101.608 22.0333 95.3263 22.0333Z" fill="#1A1A1A"/>
<path d="M120.503 13.0476H130.454C143.594 13.0476 148.475 20.7292 148.475 28.9918C148.475 37.2543 143.401 44.9862 131.662 44.9862H130.211V52.8599H120.499V13.0476H120.503ZM132.147 35.5112C136.639 35.5112 138.959 32.7067 138.959 28.9872C138.959 25.2676 136.594 22.5134 132.147 22.5134H130.216V35.5112H132.147Z" fill="#1A1A1A"/>
<path d="M152.341 13.1438H175.047V22.2756H162.049V29.1383H173.935V36.3852H162.049V43.6321H175.047V52.86H152.341V13.1438Z" fill="#1A1A1A"/>
<path d="M197.854 52.8555L194.519 44.7851C193.599 44.9315 192.588 44.9772 191.522 44.9772H189.879V52.9013H180.167V13.0432H190.117C203.257 13.0432 208.139 20.7248 208.139 28.9874C208.139 33.6722 206.542 38.1695 203.065 41.1616L209.104 52.8555H197.845H197.854ZM191.815 35.5114C196.307 35.5114 198.627 32.7069 198.627 28.9874C198.627 25.2678 196.262 22.5136 191.815 22.5136H189.884V35.5114H191.815Z" fill="#1A1A1A"/>
<path d="M48.6559 32.8808L53.6015 30.0259C52.6133 28.3194 50.7695 27.1665 48.6559 27.1665C45.4991 27.1665 42.937 29.724 42.937 32.8853C42.937 36.0467 45.4945 38.6042 48.6559 38.6042C50.7695 38.6042 52.6133 37.4513 53.6015 35.7448L48.6559 32.8899V32.8808Z" fill="#1A1A1A"/>
<path d="M92.8697 32.8808L97.8154 30.0259C96.8272 28.3194 94.9834 27.1665 92.8697 27.1665C89.7129 27.1665 87.1509 29.724 87.1509 32.8853C87.1509 36.0467 89.7083 38.6042 92.8697 38.6042C94.9834 38.6042 96.8272 37.4513 97.8154 35.7448L92.8697 32.8899V32.8808Z" fill="#1A1A1A"/>
<path d="M225.937 63.7281C224.167 63.7281 222.544 63.5437 221.069 63.1749C219.63 62.843 218.395 62.4558 217.362 62.0132C216.366 61.6075 215.647 61.2571 215.204 60.9621L216.864 57.3662C217.344 57.6243 218.026 57.9378 218.911 58.3066C219.796 58.7123 220.829 59.0443 222.009 59.3024C223.226 59.5975 224.517 59.745 225.881 59.745C227.652 59.745 229.238 59.3762 230.639 58.6386C232.077 57.9378 233.184 56.813 233.958 55.264C234.77 53.7518 235.175 51.7972 235.175 49.3999V24.3393H239.601V49.3446C239.601 52.5163 239.011 55.1718 237.831 57.3109C236.651 59.45 235.028 61.0543 232.963 62.1238C230.897 63.1934 228.555 63.7281 225.937 63.7281ZM225.771 51.7787C223.3 51.7787 221.124 51.1886 219.243 50.0084C217.362 48.8282 215.887 47.187 214.817 45.0848C213.785 42.9457 213.268 40.5116 213.268 37.7824C213.268 34.9794 213.785 32.5268 214.817 30.4246C215.887 28.2855 217.362 26.6259 219.243 25.4457C221.124 24.2655 223.3 23.6754 225.771 23.6754C228.094 23.6754 230.123 24.2655 231.856 25.4457C233.59 26.6259 234.936 28.2855 235.895 30.4246C236.89 32.5268 237.388 34.9794 237.388 37.7824C237.388 40.5485 236.89 42.9826 235.895 45.0848C234.936 47.187 233.59 48.8282 231.856 50.0084C230.123 51.1886 228.094 51.7787 225.771 51.7787ZM226.822 47.9615C228.445 47.9615 229.883 47.519 231.137 46.6338C232.391 45.7487 233.368 44.55 234.069 43.0379C234.77 41.4889 235.12 39.7002 235.12 37.6717C235.12 35.7171 234.751 33.9836 234.014 32.4715C233.313 30.9225 232.336 29.7239 231.082 28.8756C229.865 27.9905 228.426 27.5479 226.767 27.5479C225.033 27.5479 223.484 27.9905 222.12 28.8756C220.792 29.7239 219.741 30.9225 218.966 32.4715C218.229 33.9836 217.86 35.7171 217.86 37.6717C217.86 39.7002 218.247 41.4889 219.022 43.0379C219.796 44.55 220.847 45.7487 222.175 46.6338C223.54 47.519 225.089 47.9615 226.822 47.9615ZM249.776 37.0079C249.776 34.0205 250.347 31.6048 251.491 29.7608C252.634 27.8798 254.091 26.4968 255.861 25.6117C257.668 24.6896 259.567 24.2286 261.559 24.2286V28.3777C259.936 28.3777 258.369 28.6543 256.857 29.2076C255.381 29.7239 254.164 30.5906 253.206 31.8077C252.247 33.0247 251.767 34.6844 251.767 36.7866L249.776 37.0079ZM247.341 52V24.3393H251.767V52H247.341ZM266.311 52V24.3393H270.736V52H266.311ZM268.579 17.922C267.841 17.922 267.196 17.6454 266.643 17.0922C266.089 16.5389 265.813 15.8935 265.813 15.1559C265.813 14.3814 266.089 13.736 266.643 13.2197C267.196 12.6664 267.841 12.3898 268.579 12.3898C269.353 12.3898 269.999 12.6664 270.515 13.2197C271.068 13.736 271.345 14.3814 271.345 15.1559C271.345 15.8935 271.068 16.5389 270.515 17.0922C269.999 17.6454 269.353 17.922 268.579 17.922ZM299.361 52L299.14 46.8551V13.275H303.565V52H299.361ZM289.79 52.6639C287.319 52.6639 285.143 52.0553 283.262 50.8382C281.381 49.6212 279.906 47.9247 278.837 45.7487C277.804 43.5358 277.288 41.0095 277.288 38.1696C277.288 35.2929 277.804 32.7666 278.837 30.5906C279.906 28.4146 281.381 26.7181 283.262 25.501C285.143 24.2839 287.319 23.6754 289.79 23.6754C292.114 23.6754 294.142 24.2839 295.876 25.501C297.646 26.7181 299.011 28.4146 299.969 30.5906C300.928 32.7666 301.408 35.2929 301.408 38.1696C301.408 41.0095 300.928 43.5358 299.969 45.7487C299.011 47.9247 297.646 49.6212 295.876 50.8382C294.142 52.0553 292.114 52.6639 289.79 52.6639ZM290.786 48.6254C292.409 48.6254 293.847 48.1828 295.101 47.2977C296.355 46.4125 297.332 45.177 298.033 43.5911C298.771 42.0053 299.14 40.1981 299.14 38.1696C299.14 36.1412 298.771 34.334 298.033 32.7481C297.332 31.1622 296.355 29.9267 295.101 29.0416C293.847 28.1565 292.39 27.7139 290.731 27.7139C288.997 27.7139 287.448 28.1565 286.084 29.0416C284.756 29.9267 283.705 31.1622 282.93 32.7481C282.156 34.334 281.769 36.1412 281.769 38.1696C281.769 40.1981 282.156 42.0053 282.93 43.5911C283.705 45.177 284.774 46.4125 286.139 47.2977C287.504 48.1828 289.053 48.6254 290.786 48.6254Z" fill="#1A1A1A"/>
</svg>
